<?xml version="1.0" encoding="utf-8"?>
<svg width="1280px" height="800px" viewBox="0 0 1280 800" version="1.1" xmlns:xlink="http://www.w3.org/1999/xlink" xmlns="http://www.w3.org/2000/svg">
  <defs>
    <path d="M1280 0L1280 0L1280 800L0 800L0 0L1280 0Z" id="path_1" />
    <clipPath id="clip_1">
      <use xlink:href="#path_1" clip-rule="evenodd" fill-rule="evenodd" />
    </clipPath>
  </defs>
  <g id="MacBook Air/Pro 13&quot;">
    <path d="M1280 0L1280 0L1280 800L0 800L0 0L1280 0Z" id="MacBook-AirPro-13&quot;" fill="#FFFFFF" stroke="none" />
    <path d="M1280 179L1155.36 303.645C1135.83 323.174 1135.83 354.826 1155.36 374.355L1279.31 498.309L1280 179L1280 179Z" id="Rectangle" fill="#F5F5F5" fill-rule="evenodd" stroke="none" clip-path="url(#clip_1)" />
    <path d="M1279.72 57.2466L1279.75 57.1849L1279.75 -0.582886L788.134 -0.582886L787 -1L1027.67 239.668C1047.2 259.196 1078.85 259.196 1098.38 239.668L1279.72 58.3254L1279.72 57.2466L1279.72 57.2466Z" id="Rectangle" fill="#F5F5F5" fill-rule="evenodd" stroke="none" clip-path="url(#clip_1)" />
    <path d="M1279.9 800L1279.9 622.907L1279.91 622.906L1116.36 459.355C1096.83 439.826 1065.17 439.826 1045.64 459.355L874.551 630.449C855.022 649.978 855.022 681.631 874.55 701.16L973.66 800.269L973.5 800L1279.9 800L1279.9 800Z" id="Rectangle" fill="#F5F5F5" fill-rule="evenodd" stroke="none" clip-path="url(#clip_1)" />
    <path d="M760.927 730.073C780.455 710.544 812.108 710.544 831.637 730.073L901.46 799.895L691.104 799.895L760.927 730.073L760.927 730.073Z" id="Rectangle" fill="#F5F5F5" fill-rule="evenodd" stroke="none" clip-path="url(#clip_1)" />
    <path d="M760.163 544.01L760.163 303.983Q760.163 302.756 760.223 301.53Q760.284 300.304 760.404 299.082Q760.524 297.861 760.704 296.647Q760.884 295.432 761.124 294.228Q761.363 293.025 761.661 291.834Q761.96 290.643 762.316 289.469Q762.672 288.294 763.086 287.139Q763.499 285.983 763.969 284.849Q764.439 283.715 764.963 282.605Q765.488 281.496 766.067 280.413Q766.646 279.331 767.276 278.278Q767.908 277.225 768.589 276.204Q769.271 275.184 770.003 274.198Q770.734 273.212 771.512 272.263Q772.291 271.315 773.115 270.405Q773.94 269.496 774.808 268.628Q775.676 267.76 776.585 266.935Q777.495 266.111 778.443 265.333Q779.392 264.554 780.378 263.823Q781.364 263.091 782.384 262.41Q783.405 261.728 784.458 261.097Q785.511 260.466 786.593 259.887Q787.676 259.308 788.785 258.784Q789.895 258.259 791.029 257.789Q792.163 257.319 793.318 256.906Q794.474 256.492 795.649 256.136Q796.823 255.78 798.014 255.481Q799.205 255.183 800.409 254.944Q801.612 254.704 802.827 254.524Q804.041 254.344 805.262 254.224Q806.484 254.104 807.71 254.043Q808.936 253.983 810.163 253.983L850.959 253.983Q852.186 253.983 853.412 254.043Q854.638 254.104 855.86 254.224Q857.081 254.344 858.296 254.524Q859.51 254.704 860.714 254.944Q861.917 255.183 863.108 255.481Q864.299 255.78 865.473 256.136Q866.648 256.492 867.803 256.906Q868.959 257.319 870.093 257.789Q871.227 258.259 872.337 258.784Q873.446 259.308 874.529 259.887Q875.611 260.466 876.664 261.097Q877.717 261.728 878.737 262.41Q879.758 263.091 880.744 263.823Q881.73 264.554 882.679 265.333Q883.627 266.111 884.537 266.935Q885.446 267.76 886.314 268.628Q887.182 269.496 888.006 270.405Q888.831 271.315 889.609 272.263Q890.388 273.212 891.119 274.198Q891.85 275.184 892.532 276.204Q893.214 277.225 893.845 278.278Q894.476 279.331 895.055 280.413Q895.634 281.496 896.158 282.605Q896.683 283.715 897.153 284.849Q897.623 285.983 898.036 287.138Q898.45 288.294 898.806 289.469Q899.162 290.643 899.461 291.834Q899.759 293.025 899.998 294.228Q900.238 295.432 900.418 296.646Q900.598 297.861 900.718 299.082Q900.839 300.304 900.899 301.53Q900.959 302.756 900.959 303.983L900.959 544.01Q900.959 545.238 900.899 546.464Q900.839 547.69 900.718 548.911Q900.598 550.133 900.418 551.347Q900.238 552.561 899.998 553.765Q899.759 554.969 899.461 556.159Q899.162 557.35 898.806 558.525Q898.45 559.699 898.036 560.855Q897.623 562.011 897.153 563.145Q896.683 564.279 896.158 565.388Q895.633 566.498 895.055 567.58Q894.476 568.663 893.845 569.715Q893.214 570.768 892.532 571.789Q891.85 572.809 891.119 573.795Q890.388 574.781 889.609 575.73Q888.831 576.679 888.007 577.588Q887.182 578.498 886.314 579.366Q885.446 580.234 884.537 581.058Q883.627 581.882 882.679 582.661Q881.73 583.44 880.744 584.171Q879.758 584.902 878.737 585.584Q877.717 586.266 876.664 586.897Q875.611 587.528 874.529 588.106Q873.446 588.685 872.337 589.21Q871.227 589.735 870.093 590.204Q868.959 590.674 867.803 591.088Q866.648 591.501 865.473 591.857Q864.299 592.214 863.108 592.512Q861.917 592.81 860.714 593.05Q859.51 593.289 858.296 593.469Q857.081 593.649 855.86 593.77Q854.638 593.89 853.412 593.95Q852.186 594.01 850.959 594.01L810.163 594.01Q808.936 594.01 807.71 593.95Q806.484 593.89 805.262 593.77Q804.041 593.649 802.826 593.469Q801.612 593.289 800.409 593.05Q799.205 592.81 798.014 592.512Q796.823 592.214 795.649 591.857Q794.474 591.501 793.318 591.088Q792.163 590.674 791.029 590.204Q789.895 589.735 788.785 589.21Q787.676 588.685 786.593 588.107Q785.511 587.528 784.458 586.897Q783.405 586.266 782.384 585.584Q781.364 584.902 780.378 584.171Q779.392 583.44 778.443 582.661Q777.495 581.882 776.585 581.058Q775.676 580.234 774.808 579.366Q773.94 578.498 773.115 577.588Q772.291 576.679 771.512 575.73Q770.734 574.781 770.003 573.795Q769.271 572.809 768.589 571.789Q767.908 570.768 767.277 569.716Q766.646 568.663 766.067 567.58Q765.488 566.498 764.964 565.388Q764.439 564.279 763.969 563.145Q763.499 562.011 763.086 560.855Q762.672 559.699 762.316 558.525Q761.96 557.35 761.661 556.159Q761.363 554.969 761.124 553.765Q760.884 552.561 760.704 551.347Q760.524 550.133 760.404 548.911Q760.284 547.69 760.223 546.464Q760.163 545.238 760.163 544.01Z" transform="rotate(45 830.56 424)" id="Rectangle" fill="#F5F5F5" stroke="none" clip-path="url(#clip_1)" />
    <path d="M788.38 -0.33667L1280 -0.33667L1280 58.5L1413 -76L1457 -76L1068 -497L695.5 -34.5L788.38 -0.33667Z" id="Vector" fill="#E2E2E2" fill-rule="evenodd" stroke="none" clip-path="url(#clip_1)" />
  </g>
</svg>