<?xml version="1.0" encoding="utf-8"?>
<svg width="300px" height="83px" viewBox="0 0 537 83" version="1.1" xmlns:xlink="http://www.w3.org/1999/xlink" xmlns="http://www.w3.org/2000/svg">
  <defs>
    <path d="M0 0L537 0L537 83L0 83L0 0Z" id="path_1" />
    <clipPath id="clip_1">
      <use xlink:href="#path_1" clip-rule="evenodd" fill-rule="evenodd" />
    </clipPath>
  </defs>
  <g id="Publicidad-Pro" clip-path="url(#clip_1)">
    <g transform="translate(0, 12.4921875)" id="Publicidad-Pro">
      <path d="M13.125 39.5391L3.82031 39.5391L3.82031 5.78906L22.0547 5.78906Q24.4219 5.78906 26.5898 6.42188Q28.7578 7.05469 30.4219 8.33203Q32.0859 9.60938 33.082 11.543Q34.0781 13.4766 34.0781 16.0781Q34.0781 17.7188 33.6094 19.1602Q33.1406 20.6016 32.3086 21.7969Q31.4766 22.9922 30.3516 23.9531Q29.2266 24.9141 27.8906 25.5703Q26.5547 26.2266 25.0664 26.5781Q23.5781 26.9297 22.0547 26.9297L13.125 26.9297L13.125 39.5391ZM24.6562 16.0781Q24.6562 12.8203 23.0039 10.957Q21.3516 9.09375 18.0234 9.09375L13.125 9.09375L13.125 23.7422L18.0234 23.7422Q19.8047 23.7422 21.0586 23.168Q22.3125 22.5938 23.1094 21.5625Q23.9062 20.5312 24.2812 19.1367Q24.6562 17.7422 24.6562 16.0781ZM36.4688 27.9609Q36.4688 26.1094 36.7852 24.1172Q37.1016 22.125 37.6992 20.1328Q38.2969 18.1406 39.1406 16.1953Q39.9844 14.25 41.0391 12.4688L46.8281 12.4688Q46.2422 14.2266 45.7852 16.1367Q45.3281 18.0469 45.0117 19.957Q44.6953 21.8672 44.5195 23.6953Q44.3438 25.5234 44.3438 27.0938Q44.3438 28.0078 44.4258 29.0508Q44.5078 30.0938 44.7188 31.1367Q44.9297 32.1797 45.3164 33.1406Q45.7031 34.1016 46.3125 34.8398Q46.9219 35.5781 47.8008 36.0117Q48.6797 36.4453 49.875 36.4453Q51.0469 36.4453 51.9727 35.918Q52.8984 35.3906 53.6016 34.5352Q54.3047 33.6797 54.7969 32.5781Q55.2891 31.4766 55.6055 30.3164Q55.9219 29.1562 56.0742 28.043Q56.2266 26.9297 56.2266 26.0391L56.2266 12.4688L64.1484 12.4688L64.1484 39.5391L61.1016 39.5391L57.4688 33.2344Q56.7891 34.8047 55.8164 36.082Q54.8438 37.3594 53.6016 38.2734Q52.3594 39.1875 50.8477 39.6797Q49.3359 40.1719 47.5781 40.1719Q44.7656 40.1719 42.6797 39.2578Q40.5938 38.3438 39.2109 36.7266Q37.8281 35.1094 37.1484 32.8711Q36.4688 30.6328 36.4688 27.9609ZM99.5391 26.0391Q99.5391 28.9922 98.6484 31.5703Q97.7578 34.1484 96.0703 36.0586Q94.3828 37.9688 91.9453 39.0703Q89.5078 40.1719 86.4141 40.1719Q84.8438 40.1719 83.4258 39.7031Q82.0078 39.2344 80.8242 38.3789Q79.6406 37.5234 78.7383 36.3281Q77.8359 35.1328 77.3203 33.6562L73.8047 39.5391L70.7578 39.5391L70.7578 2.50781L78.6797 2.50781L78.6797 15.7031Q80.0859 13.7578 82.0664 12.8438Q84.0469 11.9297 86.4141 11.9297Q89.5078 11.9297 91.9453 13.0312Q94.3828 14.1328 96.0703 16.0312Q97.7578 17.9297 98.6484 20.5078Q99.5391 23.0859 99.5391 26.0391ZM91.5 26.0391Q91.5 25.0078 91.3945 23.8477Q91.2891 22.6875 91.0312 21.5391Q90.7734 20.3906 90.3164 19.3359Q89.8594 18.2812 89.1562 17.4727Q88.4531 16.6641 87.4688 16.1836Q86.4844 15.7031 85.1484 15.7031Q83.9297 15.7031 82.9805 16.207Q82.0312 16.7109 81.3164 17.5547Q80.6016 18.3984 80.1094 19.4766Q79.6172 20.5547 79.3125 21.7031Q79.0078 22.8516 78.8672 23.9766Q78.7266 25.1016 78.7266 26.0391Q78.7266 27.0938 78.832 28.2656Q78.9375 29.4375 79.1953 30.5977Q79.4531 31.7578 79.9102 32.8008Q80.3672 33.8438 81.082 34.6523Q81.7969 35.4609 82.793 35.9297Q83.7891 36.3984 85.1484 36.3984Q86.4609 36.3984 87.457 35.918Q88.4531 35.4375 89.1562 34.6289Q89.8594 33.8203 90.3164 32.7539Q90.7734 31.6875 91.0312 30.5391Q91.2891 29.3906 91.3945 28.2305Q91.5 27.0703 91.5 26.0391ZM112.57 39.5391L104.648 39.5391L104.648 0L107.695 0L112.57 8.22656L112.57 39.5391ZM127.5 5.92969Q127.5 6.82031 127.16 7.61719Q126.82 8.41406 126.234 9Q125.648 9.58594 124.852 9.92578Q124.055 10.2656 123.164 10.2656Q122.273 10.2656 121.488 9.92578Q120.703 9.58594 120.117 9Q119.531 8.41406 119.191 7.61719Q118.852 6.82031 118.852 5.92969Q118.852 5.03906 119.191 4.25391Q119.531 3.46875 120.117 2.88281Q120.703 2.29688 121.488 1.95703Q122.273 1.61719 123.164 1.61719Q124.055 1.61719 124.852 1.95703Q125.648 2.29688 126.234 2.88281Q126.82 3.46875 127.16 4.25391Q127.5 5.03906 127.5 5.92969ZM127.148 39.5391L119.203 39.5391L119.203 12.4922L127.148 12.4922L127.148 39.5391ZM158.766 19.1719L155.344 20.5312Q154.523 17.9531 152.602 16.5703Q150.68 15.1875 147.984 15.1875Q146.531 15.1875 145.395 15.6445Q144.258 16.1016 143.402 16.8984Q142.547 17.6953 141.949 18.75Q141.352 19.8047 140.977 21Q140.602 22.1953 140.438 23.4727Q140.273 24.75 140.273 25.9453Q140.273 27.2344 140.414 28.5469Q140.555 29.8594 140.895 31.0664Q141.234 32.2734 141.797 33.3164Q142.359 34.3594 143.215 35.1328Q144.07 35.9062 145.254 36.3516Q146.438 36.7969 147.984 36.7969Q149.227 36.7969 150.352 36.4219Q151.477 36.0469 152.414 35.3672Q153.352 34.6875 154.078 33.75Q154.805 32.8125 155.227 31.6641L158.672 32.9297Q157.898 34.7812 156.621 36.1289Q155.344 37.4766 153.727 38.3555Q152.109 39.2344 150.258 39.6562Q148.406 40.0781 146.508 40.0781Q143.438 40.0781 140.812 39.0352Q138.188 37.9922 136.277 36.1055Q134.367 34.2188 133.289 31.6289Q132.211 29.0391 132.211 25.9453Q132.211 22.8281 133.277 20.2266Q134.344 17.625 136.242 15.75Q138.141 13.875 140.766 12.8438Q143.391 11.8125 146.508 11.8125Q148.477 11.8125 150.352 12.2461Q152.227 12.6797 153.832 13.582Q155.438 14.4844 156.715 15.8672Q157.992 17.25 158.766 19.1719ZM171.773 5.92969Q171.773 6.82031 171.434 7.61719Q171.094 8.41406 170.508 9Q169.922 9.58594 169.125 9.92578Q168.328 10.2656 167.438 10.2656Q166.547 10.2656 165.762 9.92578Q164.977 9.58594 164.391 9Q163.805 8.41406 163.465 7.61719Q163.125 6.82031 163.125 5.92969Q163.125 5.03906 163.465 4.25391Q163.805 3.46875 164.391 2.88281Q164.977 2.29688 165.762 1.95703Q166.547 1.61719 167.438 1.61719Q168.328 1.61719 169.125 1.95703Q169.922 2.29688 170.508 2.88281Q171.094 3.46875 171.434 4.25391Q171.773 5.03906 171.773 5.92969ZM171.422 39.5391L163.477 39.5391L163.477 12.4922L171.422 12.4922L171.422 39.5391ZM205.336 39.5391L202.289 39.5391L198.773 33.6562Q198.258 35.1328 197.355 36.3281Q196.453 37.5234 195.27 38.3789Q194.086 39.2344 192.668 39.7031Q191.25 40.1719 189.68 40.1719Q186.586 40.1719 184.148 39.0703Q181.711 37.9688 180.023 36.0586Q178.336 34.1484 177.445 31.5703Q176.555 28.9922 176.555 26.0391Q176.555 23.0859 177.445 20.5078Q178.336 17.9297 180.023 16.0312Q181.711 14.1328 184.148 13.0312Q186.586 11.9297 189.68 11.9297Q192.047 11.9297 194.027 12.8438Q196.008 13.7578 197.414 15.7031L197.414 2.50781L205.336 2.50781L205.336 39.5391ZM197.367 26.0391Q197.367 25.1016 197.227 23.9766Q197.086 22.8516 196.781 21.7031Q196.477 20.5547 195.984 19.4766Q195.492 18.3984 194.777 17.5547Q194.062 16.7109 193.113 16.207Q192.164 15.7031 190.945 15.7031Q189.609 15.7031 188.625 16.1836Q187.641 16.6641 186.938 17.4727Q186.234 18.2812 185.777 19.3359Q185.32 20.3906 185.062 21.5391Q184.805 22.6875 184.699 23.8477Q184.594 25.0078 184.594 26.0391Q184.594 27.0703 184.699 28.2305Q184.805 29.3906 185.062 30.5391Q185.32 31.6875 185.777 32.7539Q186.234 33.8203 186.938 34.6289Q187.641 35.4375 188.625 35.918Q189.609 36.3984 190.945 36.3984Q192.281 36.3984 193.289 35.9297Q194.297 35.4609 195.012 34.6523Q195.727 33.8438 196.184 32.8008Q196.641 31.7578 196.898 30.5977Q197.156 29.4375 197.262 28.2656Q197.367 27.0938 197.367 26.0391ZM239.203 39.5391L231.281 39.5391L231.281 36.3047Q229.875 38.2266 227.895 39.1523Q225.914 40.0781 223.547 40.0781Q220.453 40.0781 218.016 38.9766Q215.578 37.875 213.891 35.9648Q212.203 34.0547 211.312 31.4766Q210.422 28.8984 210.422 25.9453Q210.422 22.9922 211.312 20.4141Q212.203 17.8359 213.891 15.9258Q215.578 14.0156 218.016 12.9141Q220.453 11.8125 223.547 11.8125Q225.117 11.8125 226.535 12.2812Q227.953 12.75 229.137 13.6055Q230.32 14.4609 231.223 15.668Q232.125 16.875 232.641 18.3516L236.156 12.4688L239.203 12.4688L239.203 39.5391ZM231.234 25.9453Q231.234 24.8906 231.129 23.7188Q231.023 22.5469 230.766 21.3984Q230.508 20.25 230.051 19.207Q229.594 18.1641 228.879 17.3555Q228.164 16.5469 227.156 16.0781Q226.148 15.6094 224.812 15.6094Q223.477 15.6094 222.492 16.0898Q221.508 16.5703 220.805 17.3789Q220.102 18.1875 219.645 19.2422Q219.188 20.2969 218.93 21.4453Q218.672 22.5938 218.566 23.7539Q218.461 24.9141 218.461 25.9453Q218.461 26.9766 218.566 28.1484Q218.672 29.3203 218.93 30.4688Q219.188 31.6172 219.645 32.6719Q220.102 33.7266 220.805 34.5352Q221.508 35.3438 222.492 35.8242Q223.477 36.3047 224.812 36.3047Q226.031 36.3047 226.98 35.8008Q227.93 35.2969 228.645 34.4531Q229.359 33.6094 229.852 32.5312Q230.344 31.4531 230.648 30.3047Q230.953 29.1562 231.094 28.0195Q231.234 26.8828 231.234 25.9453ZM273.094 39.5391L270.047 39.5391L266.531 33.6562Q266.016 35.1328 265.113 36.3281Q264.211 37.5234 263.027 38.3789Q261.844 39.2344 260.426 39.7031Q259.008 40.1719 257.438 40.1719Q254.344 40.1719 251.906 39.0703Q249.469 37.9688 247.781 36.0586Q246.094 34.1484 245.203 31.5703Q244.312 28.9922 244.312 26.0391Q244.312 23.0859 245.203 20.5078Q246.094 17.9297 247.781 16.0312Q249.469 14.1328 251.906 13.0312Q254.344 11.9297 257.438 11.9297Q259.805 11.9297 261.785 12.8438Q263.766 13.7578 265.172 15.7031L265.172 2.50781L273.094 2.50781L273.094 39.5391ZM265.125 26.0391Q265.125 25.1016 264.984 23.9766Q264.844 22.8516 264.539 21.7031Q264.234 20.5547 263.742 19.4766Q263.25 18.3984 262.535 17.5547Q261.82 16.7109 260.871 16.207Q259.922 15.7031 258.703 15.7031Q257.367 15.7031 256.383 16.1836Q255.398 16.6641 254.695 17.4727Q253.992 18.2812 253.535 19.3359Q253.078 20.3906 252.82 21.5391Q252.562 22.6875 252.457 23.8477Q252.352 25.0078 252.352 26.0391Q252.352 27.0703 252.457 28.2305Q252.562 29.3906 252.82 30.5391Q253.078 31.6875 253.535 32.7539Q253.992 33.8203 254.695 34.6289Q255.398 35.4375 256.383 35.918Q257.367 36.3984 258.703 36.3984Q260.039 36.3984 261.047 35.9297Q262.055 35.4609 262.77 34.6523Q263.484 33.8438 263.941 32.8008Q264.398 31.7578 264.656 30.5977Q264.914 29.4375 265.02 28.2656Q265.125 27.0938 265.125 26.0391ZM303.117 39.5391L293.812 39.5391L293.812 5.78906L312.047 5.78906Q314.414 5.78906 316.582 6.42188Q318.75 7.05469 320.414 8.33203Q322.078 9.60938 323.074 11.543Q324.07 13.4766 324.07 16.0781Q324.07 17.7188 323.602 19.1602Q323.133 20.6016 322.301 21.7969Q321.469 22.9922 320.344 23.9531Q319.219 24.9141 317.883 25.5703Q316.547 26.2266 315.059 26.5781Q313.57 26.9297 312.047 26.9297L303.117 26.9297L303.117 39.5391ZM314.648 16.0781Q314.648 12.8203 312.996 10.957Q311.344 9.09375 308.016 9.09375L303.117 9.09375L303.117 23.7422L308.016 23.7422Q309.797 23.7422 311.051 23.168Q312.305 22.5938 313.102 21.5625Q313.898 20.5312 314.273 19.1367Q314.648 17.7422 314.648 16.0781ZM351.141 14.8594L346.688 22.2422Q346.406 21.3047 345.961 20.1328Q345.516 18.9609 344.859 17.9414Q344.203 16.9219 343.289 16.2305Q342.375 15.5391 341.18 15.5391Q340.078 15.5391 339.27 16.1016Q338.461 16.6641 337.898 17.5664Q337.336 18.4688 336.973 19.6055Q336.609 20.7422 336.41 21.9023Q336.211 23.0625 336.141 24.1289Q336.07 25.1953 336.07 25.9688L336.07 39.5391L328.125 39.5391L328.125 12.4688L331.172 12.4688L334.383 18.7734Q335.039 17.25 335.883 15.9727Q336.727 14.6953 337.828 13.7695Q338.93 12.8438 340.324 12.3281Q341.719 11.8125 343.477 11.8125Q344.391 11.8125 345.516 11.9648Q346.641 12.1172 347.719 12.4805Q348.797 12.8438 349.711 13.4297Q350.625 14.0156 351.141 14.8594ZM382.336 25.9453Q382.336 28.0547 381.773 29.9062Q381.211 31.7578 380.215 33.3281Q379.219 34.8984 377.812 36.1523Q376.406 37.4062 374.73 38.2734Q373.055 39.1406 371.145 39.6094Q369.234 40.0781 367.219 40.0781Q365.203 40.0781 363.305 39.6094Q361.406 39.1406 359.73 38.2734Q358.055 37.4062 356.648 36.1523Q355.242 34.8984 354.246 33.3281Q353.25 31.7578 352.688 29.8945Q352.125 28.0312 352.125 25.9453Q352.125 23.8594 352.688 21.9961Q353.25 20.1328 354.246 18.5625Q355.242 16.9922 356.648 15.7383Q358.055 14.4844 359.73 13.6172Q361.406 12.75 363.305 12.2812Q365.203 11.8125 367.219 11.8125Q369.234 11.8125 371.145 12.2812Q373.055 12.75 374.73 13.6172Q376.406 14.4844 377.812 15.7383Q379.219 16.9922 380.215 18.5625Q381.211 20.1328 381.773 21.9961Q382.336 23.8594 382.336 25.9453ZM374.273 25.9453Q374.273 24.8203 374.145 23.5664Q374.016 22.3125 373.711 21.1055Q373.406 19.8984 372.879 18.7852Q372.352 17.6719 371.578 16.8398Q370.805 16.0078 369.727 15.5039Q368.648 15 367.219 15Q365.859 15 364.805 15.5156Q363.75 16.0312 362.965 16.8867Q362.18 17.7422 361.652 18.8672Q361.125 19.9922 360.797 21.1992Q360.469 22.4062 360.328 23.6367Q360.188 24.8672 360.188 25.9453Q360.188 27.0234 360.328 28.2539Q360.469 29.4844 360.797 30.7031Q361.125 31.9219 361.652 33.0352Q362.18 34.1484 362.965 35.0039Q363.75 35.8594 364.805 36.375Q365.859 36.8906 367.219 36.8906Q368.625 36.8906 369.703 36.3867Q370.781 35.8828 371.566 35.0391Q372.352 34.1953 372.867 33.0938Q373.383 31.9922 373.699 30.7734Q374.016 29.5547 374.145 28.3125Q374.273 27.0703 374.273 25.9453Z" />
    </g>
  </g>
</svg>